<?xml version="1.0" standalone="no"?>
<!DOCTYPE svg PUBLIC "-//W3C//DTD SVG 20010904//EN"
 "http://www.w3.org/TR/2001/REC-SVG-20010904/DTD/svg10.dtd">
<svg version="1.0" xmlns="http://www.w3.org/2000/svg"
 width="288.000000pt" height="288.000000pt" viewBox="0 0 288.000000 288.000000"
 preserveAspectRatio="xMidYMid meet">
<metadata>
Created by potrace 1.11, written by Peter Selinger 2001-2013
</metadata>
<g transform="translate(0.000000,288.000000) scale(0.100000,-0.100000)"
fill="#000000" stroke="none">
<path d="M1100 2851 c-142 -38 -188 -55 -303 -112 -396 -196 -679 -561 -777
-999 -30 -133 -29 -480 1 -607 53 -225 145 -419 277 -585 218 -274 489 -445
835 -527 76 -18 120 -21 309 -21 239 0 282 6 453 62 432 143 780 491 923 923
63 192 62 181 62 783 l0 551 -26 71 c-81 225 -239 383 -464 464 l-71 26 -557
-1 -557 -1 -105 -27z m-197 -872 c12 -7 25 -17 29 -23 4 -6 8 -177 8 -381 0
-332 2 -374 18 -405 24 -49 74 -75 144 -75 62 0 94 17 132 69 20 26 21 42 24
412 l3 384 25 16 c17 12 39 15 74 12 87 -9 81 22 78 -437 -3 -403 -3 -406 -26
-453 -53 -106 -157 -160 -307 -161 -181 -1 -293 66 -336 202 -13 39 -26 738
-15 796 4 19 15 36 29 43 30 14 93 15 120 1z m795 -2 c6 -7 59 -183 117 -392
59 -209 110 -386 114 -393 4 -7 56 162 116 375 59 213 115 396 123 406 34 39
153 2 160 -50 2 -11 -60 -227 -137 -479 -161 -523 -151 -504 -252 -504 -53 0
-119 20 -119 36 0 3 -65 216 -145 475 -158 511 -155 497 -92 524 40 18 101 19
115 2z"/>
</g>
</svg>
